HIERARCHY
ROOT Hips
{
 OFFSET 0.000000 0.000000 0.000000
 CHANNELS 6 Xposition Yposition Zposition Yrotation Xrotation Zrotation
 JOINT Chest
 {
  OFFSET 0.000000 9.588913 -0.003946
  CHANNELS 3 Yrotation Xrotation Zrotation
  JOINT Chest2
  {
   OFFSET 0.000000 9.541882 0.008053
   CHANNELS 3 Yrotation Xrotation Zrotation
   JOINT Chest3
   {
    OFFSET 0.000000 9.501360 0.000000
    CHANNELS 3 Yrotation Xrotation Zrotation
    JOINT Chest4
    {
     OFFSET 0.000000 9.491660 0.000000
     CHANNELS 3 Yrotation Xrotation Zrotation
     JOINT Neck
     {
      OFFSET 0.000000 14.331917 0.000000
      CHANNELS 3 Yrotation Xrotation Zrotation
      JOINT Head
      {
       OFFSET 0.000000 8.884799 0.017034
       CHANNELS 3 Yrotation Xrotation Zrotation
       End Site
       {
        OFFSET 0.000000 16.896195 0.008993
       }
      }
     }
     JOINT RightCollar
     {
      OFFSET -2.923010 9.499495 0.000000
      CHANNELS 3 Yrotation Xrotation Zrotation
      JOINT RightShoulder
      {
       OFFSET -13.795216 0.000000 0.000000
       CHANNELS 3 Yrotation Xrotation Zrotation
       JOINT RightElbow
       {
        OFFSET -30.272209 0.000000 0.000000
        CHANNELS 3 Yrotation Xrotation Zrotation
        JOINT RightWrist
        {
         OFFSET -24.478199 0.000000 0.000000
         CHANNELS 3 Yrotation Xrotation Zrotation
         End Site
         {
          OFFSET -18.090752 0.000000 0.000000
         }
        }
       }
      }
     }
     JOINT LeftCollar
     {
      OFFSET 2.923010 9.499495 0.000000
      CHANNELS 3 Yrotation Xrotation Zrotation
      JOINT LeftShoulder
      {
       OFFSET 13.795216 0.000000 0.000000
       CHANNELS 3 Yrotation Xrotation Zrotation
       JOINT LeftElbow
       {
        OFFSET 30.272209 0.000000 0.000000
        CHANNELS 3 Yrotation Xrotation Zrotation
        JOINT LeftWrist
        {
         OFFSET 24.478199 0.000000 0.000000
         CHANNELS 3 Yrotation Xrotation Zrotation
         End Site
         {
          OFFSET 18.090752 0.000000 0.000000
         }
        }
       }
      }
     }
    }
   }
  }
 }
 JOINT RightHip
 {
  OFFSET -7.826875 0.019532 0.001973
  CHANNELS 3 Yrotation Xrotation Zrotation
  JOINT RightKnee
  {
   OFFSET 0.000000 -40.546152 -0.001885
   CHANNELS 3 Yrotation Xrotation Zrotation
   JOINT RightAnkle
   {
    OFFSET 0.000000 -39.417092 -0.003189
    CHANNELS 3 Yrotation Xrotation Zrotation
    JOINT RightToe
    {
     OFFSET 0.000000 -7.579396 17.243563
     CHANNELS 3 Yrotation Xrotation Zrotation
     End Site
     {
      OFFSET 0.000000 -1.500329 6.694466
     }
    }
   }
  }
 }
 JOINT LeftHip
 {
  OFFSET 7.826875 0.019532 0.001973
  CHANNELS 3 Yrotation Xrotation Zrotation
  JOINT LeftKnee
  {
   OFFSET 0.000000 -40.546152 -0.001885
   CHANNELS 3 Yrotation Xrotation Zrotation
   JOINT LeftAnkle
   {
    OFFSET 0.000000 -39.417092 -0.003189
    CHANNELS 3 Yrotation Xrotation Zrotation
    JOINT LeftToe
    {
     OFFSET 0.000000 -7.579396 17.243563
     CHANNELS 3 Yrotation Xrotation Zrotation
     End Site
     {
      OFFSET 0.000000 -1.500329 6.694466
     }
    }
   }
  }
 }
}
MOTION
Frames: 5
Frame Time: 0.008333
-134.266597 88.190881 101.065504 -61.937401 -4.322943 -4.046750 2.273623 2.527775 1.474658 1.326984 1.513510 0.469534 1.660810 1.890153 0.592438 1.326984 1.513510 0.469534 -21.924267 19.752622 3.954948 -27.718903 -1.966048 10.062182 -4.857199 -6.755888 -9.333377 -5.160799 -38.987598 40.829633 57.767817 1.408383 -6.162528 -32.741218 0.953162 3.340995 -10.195533 -0.668052 1.080891 7.852935 -0.382519 -88.180900 -1.517422 -4.849798 -0.747779 -1.288657 -2.609041 5.159399 17.650105 2.984973 1.553060 -2.206012 1.880342 1.147459 2.934223 -1.039908 2.759766 -0.071354 0.872613 -0.032776 18.243583 14.104745 14.135917 9.516692 2.800626 1.059716 3.278058 -10.135204 -8.194749 -0.103114 -0.679204 -0.005625
-134.247719 88.189205 101.037615 -62.085667 -4.291324 -4.053680 2.259397 2.528994 1.473384 1.320233 1.515375 0.468039 1.652367 1.892498 0.590549 1.320233 1.515375 0.468039 -21.881321 19.765650 3.961358 -27.659251 -1.958734 10.057522 -4.938952 -6.745506 -9.361895 -5.394080 -39.042810 40.763035 58.546839 1.535747 -6.353743 -32.881230 1.027030 3.385995 -10.191453 -0.662329 1.091145 7.853462 -0.380723 -88.165136 -1.509315 -4.854312 -0.737933 -1.299758 -2.614050 5.164347 17.694746 2.889393 1.547955 -2.174019 1.910411 1.145212 3.001469 -1.021484 2.760726 -0.070628 0.872772 -0.030353 18.269067 14.101860 14.132328 9.570723 2.767833 1.029467 3.315532 -10.128689 -8.193176 -0.106107 -0.682994 -0.006200
-134.229129 88.187036 101.008387 -62.232563 -4.262063 -4.063147 2.247330 2.530343 1.472942 1.314393 1.517474 0.466718 1.645064 1.895134 0.588881 1.314393 1.517474 0.466718 -21.840043 19.780069 3.969445 -27.602512 -1.949044 10.055310 -5.024638 -6.734283 -9.388240 -5.653317 -39.062980 40.710880 59.348534 1.650217 -6.549699 -33.016362 1.099712 3.439013 -10.195216 -0.658711 1.104459 7.855654 -0.372476 -88.153902 -1.505096 -4.864096 -0.727809 -1.308890 -2.620537 5.169229 17.750458 2.792960 1.548166 -2.142978 1.944003 1.143002 3.054045 -1.005063 2.762180 -0.070983 0.873339 -0.029919 18.290856 14.096714 14.131156 9.622137 2.743156 1.001584 3.358743 -10.128448 -8.192204 -0.107969 -0.685227 -0.008158
-134.210409 88.184184 100.977466 -62.378347 -4.232346 -4.075632 2.236084 2.531391 1.473533 1.308575 1.519216 0.465989 1.637790 1.897322 0.587952 1.308575 1.519216 0.465989 -21.798715 19.795138 3.978358 -27.545988 -1.938424 10.054068 -5.103692 -6.723826 -9.412814 -5.951159 -39.045509 40.681715 60.174634 1.746540 -6.756376 -33.150419 1.178525 3.511518 -10.202013 -0.655742 1.119478 7.860935 -0.357396 -88.145877 -1.507843 -4.876530 -0.720374 -1.315351 -2.627738 5.173695 17.817115 2.692545 1.556347 -2.114945 1.981316 1.141722 3.077100 -0.990808 2.760749 -0.073364 0.875476 -0.031568 18.313302 14.085504 14.132043 9.670662 2.725456 0.975991 3.408823 -10.135005 -8.191701 -0.108395 -0.684125 -0.010999
-134.191258 88.180511 100.944859 -62.517556 -4.199540 -4.090457 2.222490 2.531481 1.475386 1.301274 1.520239 0.465417 1.628662 1.898613 0.587210 1.301274 1.520239 0.465417 -21.757139 19.810436 3.987086 -27.489079 -1.927593 10.052513 -5.174287 -6.716391 -9.438827 -6.293355 -38.997244 40.691041 61.023857 1.821393 -6.974882 -33.292411 1.262100 3.605481 -10.206358 -0.652262 1.136437 7.866739 -0.336709 -88.141798 -1.516910 -4.891764 -0.715787 -1.322183 -2.634245 5.173804 17.884572 2.588095 1.567774 -2.090418 2.019823 1.141428 3.089200 -0.978339 2.757648 -0.076675 0.879394 -0.034026 18.336040 14.064820 14.135793 9.715495 2.714487 0.953371 3.453064 -10.149320 -8.192103 -0.109217 -0.680442 -0.014194
